<?xml version="1.0" encoding="UTF-8"?>
<!-- Generator: Adobe Illustrator 23.0.1, SVG Export Plug-In . SVG Version: 6.00 Build 0)  -->
<svg width="850px" height="850px" xmlns="http://www.w3.org/2000/svg" xmlns:xlink="http://www.w3.org/1999/xlink" id="Layer_1" x="0px" y="0px" viewBox="0 0 150 150" style="enable-background:new 0 0 150 150;" xml:space="preserve">
<style type="text/css">
	.st0{fill:#1CB1C8;}
	.st1{fill:#FFFFFF;}
</style>
<title>Medavie_Mission Vision Values_Icons</title>
<circle class="st0" cx="75" cy="75" r="75"></circle>
<path class="st1" d="M98.6,33.7c-10.6,0-17.3,6.3-21.1,11.6c-0.9,1.3-1.8,2.7-2.5,4.1c-0.8-1.4-1.6-2.8-2.5-4.1  C68.7,40.1,62,33.7,51.4,33.7C44,33.7,36.9,36.9,32,42.5c-4.8,5.6-7.4,12.8-7.3,20.2c0,8.4,3.3,16.2,10.3,24.5  c6.3,7.5,15.3,15.1,25.7,24c3.9,3.3,7.9,6.8,12.2,10.5l0.1,0.1c1.1,1,2.8,1,3.9,0l0.1-0.1c4.3-3.8,8.3-7.2,12.2-10.5  c10.4-8.9,19.5-16.6,25.7-24c7-8.4,10.3-16.1,10.3-24.5c0.1-7.4-2.5-14.6-7.3-20.2C113.1,36.9,106,33.7,98.6,33.7z M85.5,106.8  c-3.4,2.9-6.8,5.8-10.5,9c-3.6-3.2-7.1-6.1-10.5-9C44.1,89.4,30.6,77.9,30.6,62.7c-0.1-6,2-11.8,5.9-16.4c3.8-4.3,9.2-6.8,15-6.8  c8.1,0,13.3,5,16.3,9.2c1.9,2.8,3.5,5.8,4.5,9c0.5,1.6,2.1,2.4,3.7,2c1-0.3,1.7-1,2-2c1.1-3.2,2.6-6.2,4.5-9c3-4.2,8.2-9.1,16.3-9.1  c5.7,0,11.2,2.4,15,6.8c3.9,4.6,6,10.4,5.9,16.4C119.4,77.9,105.9,89.4,85.5,106.8z"></path>
<path class="st0" d="M75,123.2c-0.9,0-1.7-0.3-2.3-0.9l-0.1-0.1c-4.3-3.7-8.3-7.1-12.1-10.4l-0.1-0.1c-10.5-8.9-19.5-16.6-25.8-24.1  c-7.1-8.5-10.4-16.4-10.4-24.9c-0.1-7.6,2.5-14.9,7.5-20.6c5-5.7,12.2-9,19.8-8.9c10.9,0,17.7,6.5,21.6,11.9c0.7,1,1.4,2.1,2,3.2  c0.6-1.1,1.3-2.1,2-3.2c3.8-5.5,10.7-11.9,21.6-11.9c7.6-0.1,14.8,3.2,19.8,8.9c4.9,5.7,7.6,13.1,7.5,20.6c0,8.5-3.3,16.4-10.4,24.9  c-6.3,7.5-15.3,15.2-25.7,24.1c-3.9,3.3-7.9,6.8-12.2,10.5l-0.1,0.1C76.7,122.9,75.9,123.2,75,123.2z M51.4,34.3  c-7.3,0-14.2,3.1-18.9,8.5c-4.8,5.5-7.3,12.6-7.2,19.9c0,8.2,3.2,15.9,10.2,24.1c6.2,7.4,15.2,15.1,25.7,24h0.1  c3.9,3.3,7.9,6.7,12.2,10.4l0.1,0.1c0.9,0.8,2.2,0.8,3.1,0l0.1-0.1c4.3-3.8,8.3-7.2,12.2-10.5c10.4-8.8,19.4-16.5,25.7-23.9  c6.9-8.2,10.2-15.9,10.2-24.1c0.1-7.3-2.5-14.3-7.2-19.9c-4.8-5.5-11.7-8.6-19-8.6c-10.3,0-17,6.2-20.6,11.4c-0.9,1.3-1.7,2.6-2.5,4  l-0.5,1l-0.5-1c-0.7-1.4-1.6-2.7-2.5-4C68.3,40.5,61.8,34.3,51.4,34.3z M75,116.6l-0.4-0.3c-3.6-3.2-7.1-6.1-10.4-9  C43.6,89.7,30,78.1,30,62.7c-0.1-6.1,2-12.1,6-16.8c3.9-4.4,9.5-7,15.4-6.9c8.3,0,13.7,5.1,16.8,9.4c2,2.8,3.5,5.9,4.6,9.1  c0.4,1.2,1.7,2,2.9,1.6c0.8-0.2,1.3-0.8,1.6-1.6c1.1-3.2,2.6-6.3,4.5-9.1c3-4.3,8.4-9.4,16.8-9.4c5.9,0,11.5,2.5,15.4,6.9  c4,4.7,6.1,10.6,6,16.8c0,15.4-13.6,27-34.2,44.5l0,0c-3.4,2.9-6.8,5.8-10.4,9L75,116.6z M51.4,40.2c-5.6,0-10.8,2.3-14.5,6.5  c-3.8,4.4-5.8,10.1-5.7,16c0,14.9,13.4,26.3,33.8,43.6c3.2,2.7,6.6,5.7,10.1,8.6c3.5-3,6.8-5.9,10.1-8.6  c20.3-17.3,33.8-28.8,33.8-43.6c0.1-5.8-1.9-11.5-5.7-16c-3.7-4.2-9-6.6-14.5-6.5c-7.8,0-12.9,4.8-15.8,8.9  c-1.9,2.7-3.3,5.7-4.4,8.8c-0.6,1.9-2.5,2.9-4.4,2.4c-1.1-0.3-2-1.2-2.4-2.4c-1-3.1-2.5-6.1-4.4-8.8C64.3,45.1,59.3,40.2,51.4,40.2z  "></path>
</svg>
